# Wavefront OBJ
# Created by fragMOTION 1.3.7
# http://www.fragmosoft.com

mtllib Button.mtl
# 39 vertices
v -1.05074 2.90362 -1.26855
v -1.05074 1.18801 -1.26855
v 1.06178 2.90362 -1.26855
v 0.466519 0.469377 -1.6878
v 0.007556 0.650343 -1.6878
v 0.007556 -0.009641 -1.6878
v 0.639907 -0.009641 -1.6878
v 0.546976 0.524482 -1.48445
v 0.007556 0.726266 -1.48445
v -0.451407 -0.48866 -1.6878
v -0.624796 -0.009641 -1.6878
v -0.73565 -0.009641 -1.48445
v -0.531865 -0.543764 -1.48445
v 0.007556 -0.745548 -1.48445
v 0.007556 -0.669626 -1.6878
v 1.06178 1.18801 -1.26855
v -1.05074 -1.1983 -1.48445
v -1.05074 -0.915872 -1.48445
v -1.37648 -1.6697 -1.01304
v 1.06178 -1.1983 -1.48445
v 1.06178 2.90362 -1.48445
v 1.38753 -1.6697 -1.01304
v 1.38753 3.37503 -1.01304
v 0.466519 -0.48866 -1.6878
v 0.546976 -0.543764 -1.48445
v 0.750761 -0.009641 -1.48445
v 1.06178 -0.915872 -1.48445
v -1.05074 2.90362 -1.48445
v -1.05074 1.18801 -1.48445
v -1.05074 0.879966 -1.48445
v -1.37648 3.37503 -0.000589
v -1.37648 -1.6697 -0.000589
v -1.37648 3.37503 -1.01304
v 1.38753 -1.6697 -0.000589
v 1.06178 0.879966 -1.48445
v 1.06178 1.18801 -1.48445
v -0.531865 0.524482 -1.48445
v 1.38753 3.37503 -0.000589
v -0.451407 0.469377 -1.6878
# 78 texture vertices
vt 0.358274 0.630285
vt 0.358274 0.40286
vt 0.858511 0.630285
vt 0.861509 0.893386
vt 0.813335 0.912295
vt 0.813335 0.843331
vt 0.879709 0.843331
vt 0.22407 0.882852
vt 0.22311 0.862966
vt 0.251951 0.862966
vt 0.251951 0.882852
vt 0.109427 0.882852
vt 0.079986 0.882852
vt 0.079986 0.862966
vt 0.108467 0.862966
vt 0.137308 0.862966
vt 0.137308 0.882852
vt 0.858511 0.40286
vt 0.358274 0.086528
vt 0.358274 0.123967
vt 0.28114 0.024037
vt 0.858511 0.086528
vt 0.935644 0.024037
vt 0.935644 0.692775
vt 0.165188 0.882852
vt 0.166149 0.862966
vt 0.194629 0.862966
vt 0.194629 0.882852
vt 0.858511 0.123967
vt 0.358274 0.362026
vt 0.02318 0.691381
vt 0.02318 0.275871
vt 0.278531 0.275871
vt 0.278531 0.691381
vt 0.686971 0.948723
vt 0.277554 0.948723
vt 0.277554 0.692574
vt 0.686971 0.692574
vt 0.858511 0.362026
vt 0.947956 0.500403
vt 0.982077 0.500403
vt 0.982077 0.230126
vt 0.947956 0.230126
vt 0.697383 0.741214
vt 0.812335 0.76025
vt 0.751486 0.782909
vt 0.697383 0.942875
vt 0.728498 0.842888
vt 0.751486 0.902867
vt 0.947956 0.70784
vt 0.982077 0.70784
vt 0.982077 0.022689
vt 0.947956 0.022689
vt 0.947956 0.978118
vt 0.982077 0.978118
vt 0.028768 0.691381
vt 0.028768 0.275871
vt 0.278259 0.275871
vt 0.278259 0.691381
vt 0.28114 0.692775
vt 0.687948 0.691381
vt 0.687948 0.94677
vt 0.278531 0.94677
vt 0.935685 0.942875
vt 0.812335 0.925526
vt 0.873184 0.902867
vt 0.935685 0.741214
vt 0.896172 0.842888
vt 0.873184 0.782909
vt 0.76516 0.793277
vt 0.813335 0.774367
vt 0.746961 0.843331
vt 0.050545 0.882852
vt 0.051505 0.862966
vt 0.022664 0.882852
vt 0.022664 0.862966
vt 0.76516 0.893386
vt 0.861509 0.793277
# 39 normals
vn 0 0 -1
vn 0.545859 0.736888 -0.398791
vn 0.718905 0.535449 -0.443249
vn 0.336404 0.875541 -0.346785
vn 0.346504 0.878797 -0.328103
vn -0.721302 -0.531072 -0.444619
vn -0.878015 0 -0.478633
vn -0.886508 0 -0.462713
vn -0.541725 -0.73915 -0.40024
vn 0 -0.936835 -0.349772
vn 0 -0.928518 -0.371288
vn -0.238424 -0.204926 -0.949294
vn -0.610076 0 -0.792343
vn -0.780693 -0.308296 -0.543574
vn 0.24183 -0.415706 -0.876759
vn 0.491307 0.422279 -0.761773
vn 0.753325 -0.398815 -0.522922
vn 0.798093 0.48267 -0.360662
vn 0.721302 -0.531072 -0.444619
vn 0.541725 -0.73915 -0.400239
vn 0.878576 -0.107659 -0.465311
vn 0.878759 0.1127 -0.463768
vn 0.464498 0 -0.885574
vn -0.640083 0.275076 -0.717375
vn -0.464498 0 -0.885574
vn -1 0 0
vn -0.419147 0.785133 -0.455941
vn 0 -1 0
vn 0.610076 0 -0.792343
vn 0.707107 0.707107 0
vn -0.447214 0.894427 0
vn -0.894427 0.447214 0
vn 0.707107 -0.707107 0
vn 1 0 0
vn 0 1 0
vn -0.721302 0.531072 -0.444619
vn -0.541725 0.73915 -0.40024
vn -0.335897 0.87457 -0.349715
vn -0.330726 0.884116 -0.330089
usemtl MatD3D01
g Mesh
s off
f 1/1/1 3/3/1 2/2/1
f 4/4/1 6/6/1 5/5/1
f 4/4/1 7/7/1 6/6/1
f 4/8/2 9/10/4 8/9/3
f 4/8/2 5/11/5 9/10/4
f 10/12/6 12/14/8 11/13/7
f 10/12/6 13/15/9 12/14/8
f 13/15/9 15/17/11 14/16/10
f 13/15/9 10/12/6 15/17/11
f 3/3/1 16/18/1 2/2/1
f 17/19/12 19/21/14 18/20/13
f 19/21/14 17/19/12 20/22/15
f 21/3/16 23/24/18 22/23/17
f 24/25/19 26/27/21 25/26/20
f 24/25/19 7/28/22 26/27/21
f 20/22/15 27/29/23 22/23/17
f 28/1/24 29/2/13 19/21/14
f 19/21/14 29/2/13 30/30/25
f 17/19/12 27/29/23 20/22/15
f 17/19/12 18/20/13 27/29/23
f 22/23/17 19/21/14 20/22/15
f 31/31/26 19/33/14 32/32/26
f 31/31/26 33/34/27 19/33/14
f 22/35/17 32/37/28 19/36/14
f 22/35/17 34/38/28 32/37/28
f 30/30/25 36/18/23 35/39/29
f 30/30/25 29/2/13 36/18/23
f 2/40/30 36/42/31 29/41/30
f 2/40/30 16/43/32 36/42/31
f 18/44/1 13/46/1 14/45/1
f 35/39/29 36/18/23 22/23/17
f 30/47/1 37/49/1 12/48/1
f 30/30/25 18/20/13 19/21/14
f 22/23/17 27/29/23 35/39/29
f 2/40/30 28/51/33 1/50/33
f 2/40/30 29/41/30 28/51/33
f 21/52/26 16/43/32 3/53/26
f 21/52/26 36/42/31 16/43/32
f 3/54/28 28/51/33 21/55/28
f 3/54/28 1/50/33 28/51/33
f 23/56/18 34/58/34 22/57/17
f 23/56/18 38/59/34 34/58/34
f 21/3/16 33/60/27 23/24/18
f 21/3/16 28/1/24 33/60/27
f 33/34/27 38/62/35 23/61/18
f 33/34/27 31/63/35 38/62/35
f 33/60/27 28/1/24 19/21/14
f 36/18/23 21/3/16 22/23/17
f 35/64/1 8/66/1 9/65/1
f 27/67/1 25/69/1 26/68/1
f 10/70/1 6/6/1 15/71/1
f 10/70/1 11/72/1 6/6/1
f 8/9/3 7/28/22 4/8/2
f 8/9/3 26/27/21 7/28/22
f 25/26/20 15/17/11 24/25/19
f 25/26/20 14/16/10 15/17/11
f 39/73/36 12/14/8 37/74/37
f 39/73/36 11/13/7 12/14/8
f 37/74/37 5/75/38 39/73/36
f 37/74/37 9/76/39 5/75/38
f 39/77/1 6/6/1 11/72/1
f 39/77/1 5/5/1 6/6/1
f 24/78/1 6/6/1 7/7/1
f 24/78/1 15/71/1 6/6/1
f 35/64/1 26/68/1 8/66/1
f 35/64/1 27/67/1 26/68/1
f 27/67/1 14/45/1 25/69/1
f 27/67/1 18/44/1 14/45/1
f 18/44/1 12/48/1 13/46/1
f 18/44/1 30/47/1 12/48/1
f 30/47/1 9/65/1 37/49/1
f 30/47/1 35/64/1 9/65/1
