# Wavefront OBJ
# Created by fragMOTION 1.3.7
# http://www.fragmosoft.com

mtllib cabinet_a.mtl
# 188 vertices
v 12.6059 53.3684 -11.9497
v 12.6059 53.3684 10.8237
v -12.6059 53.3684 -11.9497
v -12.6059 53.3684 10.8237
v 12.6059 0.71446 -11.9497
v 12.6059 0.71446 10.8237
v 12.6059 52.3606 -11.9497
v 12.6059 52.3606 10.8237
v -12.6059 0.71446 -11.9497
v -12.6059 0.71446 10.8237
v -12.6059 52.3606 -11.9497
v -12.6059 52.3606 10.8237
v -9.81544 0.735863 8.46835
v -9.81544 0.735863 9.88685
v -11.3858 0.735863 8.46835
v -11.3858 0.735863 9.88685
v -9.81544 -2e-006 8.46835
v -9.81544 -2e-006 9.88685
v -11.3858 -2e-006 8.46835
v -11.3858 -2e-006 9.88685
v 11.9915 0.735863 8.46835
v 11.9915 0.735863 9.88685
v 10.4213 0.735863 8.46835
v 10.4213 0.735863 9.88685
v 11.9915 -2e-006 8.46835
v 11.9915 -2e-006 9.88685
v 10.4213 -2e-006 8.46835
v 10.4213 -2e-006 9.88685
v -9.81544 0.735863 -10.3575
v -9.81544 0.735863 -8.93925
v -11.3858 0.735863 -10.3575
v -11.3858 0.735863 -8.93925
v -9.81544 -2e-006 -10.3575
v -9.81544 -2e-006 -8.93925
v -11.3858 -2e-006 -10.3575
v -11.3858 -2e-006 -8.93925
v 11.9915 0.735863 -10.3575
v 11.9915 0.735863 -8.93925
v 10.4213 0.735863 -10.3575
v 10.4213 0.735863 -8.93925
v 11.9915 -2e-006 -10.3575
v 11.9915 -2e-006 -8.93925
v 10.4213 -2e-006 -10.3575
v 10.4213 -2e-006 -8.93925
v -0.08876 42.1544 11.3334
v -0.08876 42.1544 11.9497
v -2.8212 42.1544 11.3334
v -2.8212 42.1544 11.9497
v -2.8212 41.3909 11.3334
v -2.8212 41.3909 11.9497
v -0.08876 41.3909 11.3334
v -0.08876 41.3909 11.9497
v -3.47715 42.1544 11.3334
v -3.47715 42.1544 11.9497
v -3.47715 41.3909 11.3334
v -3.47715 41.3909 11.9497
v -3.47715 42.1544 10.8228
v -3.47715 41.3909 10.8228
v -2.8212 42.1544 10.8228
v -2.8212 41.3909 10.8228
v 2.64368 42.1544 11.3334
v 2.64368 42.1544 11.9497
v 2.64368 41.3909 11.3334
v 2.64368 41.3909 11.9497
v 3.29924 41.3909 11.3334
v 3.29924 41.3909 11.9497
v 3.29924 42.1544 11.3334
v 3.29924 42.1544 11.9497
v 2.64368 42.1544 10.8228
v 2.64368 41.3909 10.8228
v 3.29924 42.1544 10.8228
v 3.29924 41.3909 10.8228
v -0.08876 29.0671 11.3334
v -0.08876 29.0671 11.9497
v -2.8212 29.0671 11.3334
v -2.8212 29.0671 11.9497
v -2.8212 28.3036 11.3334
v -2.8212 28.3036 11.9497
v -0.08876 28.3036 11.3334
v -0.08876 28.3036 11.9497
v -3.47715 29.0671 11.3334
v -3.47715 29.0671 11.9497
v -3.47715 28.3036 11.3334
v -3.47715 28.3036 11.9497
v -3.47715 29.0671 10.8228
v -3.47715 28.3036 10.8228
v -2.8212 29.0671 10.8228
v -2.8212 28.3036 10.8228
v 2.64368 29.0671 11.3334
v 2.64368 29.0671 11.9497
v 2.64368 28.3036 11.3334
v 2.64368 28.3036 11.9497
v 3.29924 28.3036 11.3334
v 3.29924 28.3036 11.9497
v 3.29924 29.0671 11.3334
v 3.29924 29.0671 11.9497
v 2.64368 29.0671 10.8228
v 2.64368 28.3036 10.8228
v 3.29924 29.0671 10.8228
v 3.29924 28.3036 10.8228
v -0.08876 16.0167 11.3334
v -0.08876 16.0167 11.9497
v -2.8212 16.0167 11.3334
v -2.8212 16.0167 11.9497
v -2.8212 15.2532 11.3334
v -2.8212 15.2532 11.9497
v -0.08876 15.2532 11.3334
v -0.08876 15.2532 11.9497
v -3.47715 16.0167 11.3334
v -3.47715 16.0167 11.9497
v -3.47715 15.2532 11.3334
v -3.47715 15.2532 11.9497
v -3.47715 16.0167 10.8228
v -3.47715 15.2532 10.8228
v -2.8212 16.0167 10.8228
v -2.8212 15.2532 10.8228
v 2.64368 16.0167 11.3334
v 2.64368 16.0167 11.9497
v 2.64368 15.2532 11.3334
v 2.64368 15.2532 11.9497
v 3.29924 15.2532 11.3334
v 3.29924 15.2532 11.9497
v 3.29924 16.0167 11.3334
v 3.29924 16.0167 11.9497
v 2.64368 16.0167 10.8228
v 2.64368 15.2532 10.8228
v 3.29924 16.0167 10.8228
v 3.29924 15.2532 10.8228
v -0.08876 2.95039 11.3334
v -0.08876 2.95039 11.9497
v -2.8212 2.95039 11.3334
v -2.8212 2.95039 11.9497
v -2.8212 2.18686 11.3334
v -2.8212 2.18686 11.9497
v -0.08876 2.18686 11.3334
v -0.08876 2.18686 11.9497
v -3.47715 2.95039 11.3334
v -3.47715 2.95039 11.9497
v -3.47715 2.18686 11.3334
v -3.47715 2.18686 11.9497
v -3.47715 2.95039 10.8228
v -3.47715 2.18686 10.8228
v -2.8212 2.95039 10.8228
v -2.8212 2.18686 10.8228
v 2.64368 2.95039 11.3334
v 2.64368 2.95039 11.9497
v 2.64368 2.18686 11.3334
v 2.64368 2.18686 11.9497
v 3.29924 2.18686 11.3334
v 3.29924 2.18686 11.9497
v 3.29924 2.95039 11.3334
v 3.29924 2.95039 11.9497
v 2.64368 2.95039 10.8228
v 2.64368 2.18686 10.8228
v 3.29924 2.95039 10.8228
v 3.29924 2.18686 10.8228
v 2.78613 50.4051 10.9599
v 2.78613 50.4051 11.1673
v -2.97688 50.4051 10.9599
v -2.97688 50.4051 11.1673
v 2.78613 47.2367 10.9599
v 2.78613 47.2367 11.1673
v -2.97688 47.2367 10.9599
v -2.97688 47.2367 11.1673
v 2.78613 37.35 10.9599
v 2.78613 37.35 11.1673
v -2.97688 37.35 10.9599
v -2.97688 37.35 11.1673
v 2.78613 34.1817 10.9599
v 2.78613 34.1817 11.1673
v -2.97688 34.1817 10.9599
v -2.97688 34.1817 11.1673
v 2.78613 24.3946 10.9599
v 2.78613 24.3946 11.1673
v -2.97688 24.3946 10.9599
v -2.97688 24.3946 11.1673
v 2.78613 21.2262 10.9599
v 2.78613 21.2262 11.1673
v -2.97688 21.2262 10.9599
v -2.97688 21.2262 11.1673
v 2.78613 11.4175 10.9599
v 2.78613 11.4175 11.1673
v -2.97688 11.4175 10.9599
v -2.97688 11.4175 11.1673
v 2.78613 8.24908 10.9599
v 2.78613 8.24908 11.1673
v -2.97688 8.24908 10.9599
v -2.97688 8.24908 11.1673
# 210 texture vertices
vt 0.5872 -0.830601
vt 0.471924 -0.830601
vt 0.5872 -0.702983
vt 0.471924 -0.702983
vt 0.149032 -0.851767
vt 0.149032 -0.621215
vt 0.671881 -0.851767
vt 0.671881 -0.621215
vt 0.173427 -0.630589
vt 0.40398 -0.630589
vt 0.173427 -0.885825
vt 0.40398 -0.885825
vt 0.671881 -0.579507
vt 0.671881 -0.810058
vt 0.149032 -0.579507
vt 0.149032 -0.810058
vt 0.149032 -0.605833
vt 0.671881 -0.605833
vt 0.149032 -0.86107
vt 0.671881 -0.86107
vt 0.309226 -0.467003
vt 0.309226 -0.028901
vt 0.525275 -0.467003
vt 0.525275 -0.028901
vt 0.571646 -0.57866
vt 0.571646 -0.622871
vt 0.522701 -0.57866
vt 0.522701 -0.622871
vt 0.561904 -0.766375
vt 0.517693 -0.766375
vt 0.561904 -0.74344
vt 0.517693 -0.74344
vt 0.462848 -0.622871
vt 0.462848 -0.57866
vt 0.511793 -0.622871
vt 0.511793 -0.57866
vt 0.342877 -0.777283
vt 0.387088 -0.777283
vt 0.342877 -0.800218
vt 0.387088 -0.800218
vt 0.227913 -0.800218
vt 0.227913 -0.777283
vt 0.276857 -0.800218
vt 0.276857 -0.777283
vt 0.45784 -0.766375
vt 0.45784 -0.74344
vt 0.506784 -0.766375
vt 0.506784 -0.74344
vt 0.276852 -0.68832
vt 0.276852 -0.732531
vt 0.227913 -0.68832
vt 0.227913 -0.732531
vt 0.502061 -0.800218
vt 0.45785 -0.800218
vt 0.502061 -0.777283
vt 0.45785 -0.777283
vt 0.168065 -0.732531
vt 0.168065 -0.68832
vt 0.217004 -0.732531
vt 0.217004 -0.68832
vt 0.342872 -0.74344
vt 0.387083 -0.74344
vt 0.342872 -0.766375
vt 0.387083 -0.766375
vt 0.223176 -0.766375
vt 0.223176 -0.74344
vt 0.272115 -0.766375
vt 0.272115 -0.74344
vt 0.168065 -0.800218
vt 0.168065 -0.777283
vt 0.217004 -0.800218
vt 0.217004 -0.777283
vt 0.516255 -0.68832
vt 0.516255 -0.732522
vt 0.46731 -0.68832
vt 0.46731 -0.732522
vt 0.571366 -0.711255
vt 0.527164 -0.711255
vt 0.571366 -0.68832
vt 0.527164 -0.68832
vt 0.407457 -0.732522
vt 0.407457 -0.68832
vt 0.456402 -0.732522
vt 0.456402 -0.68832
vt 0.51297 -0.777283
vt 0.557172 -0.777283
vt 0.51297 -0.800218
vt 0.557172 -0.800218
vt 0.168065 -0.834062
vt 0.168065 -0.811127
vt 0.217009 -0.834062
vt 0.217009 -0.811127
vt 0.397997 -0.800218
vt 0.397997 -0.777283
vt 0.446941 -0.800218
vt 0.446941 -0.777283
vt 0.396548 -0.68832
vt 0.396548 -0.732522
vt 0.347609 -0.68832
vt 0.347609 -0.732522
vt 0.331968 -0.800218
vt 0.287766 -0.800218
vt 0.331968 -0.777283
vt 0.287766 -0.777283
vt 0.287761 -0.732522
vt 0.287761 -0.68832
vt 0.3367 -0.732522
vt 0.3367 -0.68832
vt 0.168065 -0.74344
vt 0.212267 -0.74344
vt 0.168065 -0.766375
vt 0.212267 -0.766375
vt 0.283024 -0.766375
vt 0.283024 -0.74344
vt 0.331963 -0.766375
vt 0.331963 -0.74344
vt 0.397992 -0.766375
vt 0.397992 -0.74344
vt 0.446931 -0.766375
vt 0.446931 -0.74344
vt 0.644837 -0.89441
vt 0.644837 -0.639174
vt 0.414287 -0.639174
vt 0.414287 -0.89441
vt 0.415684 -0.227245
vt 0.4002 -0.227245
vt 0.4002 -0.232427
vt 0.415684 -0.232427
vt 0.396483 -0.227245
vt 0.396483 -0.232427
vt 0.431168 -0.227245
vt 0.431168 -0.232427
vt 0.434883 -0.232427
vt 0.434883 -0.227245
vt 0.224424 -0.046092
vt 0.179061 -0.046092
vt 0.174532 -0.677411
vt 0.168065 -0.677411
vt 0.174532 -0.57866
vt 0.168065 -0.57866
vt 0.168065 -0.886189
vt 0.168065 -0.879722
vt 0.347684 -0.886189
vt 0.347684 -0.879722
vt 0.179061 -0.071031
vt 0.224424 -0.071031
vt 0.538213 -0.862346
vt 0.538213 -0.868813
vt 0.358593 -0.862346
vt 0.358593 -0.868813
vt 0.434563 -0.677408
vt 0.428096 -0.677408
vt 0.434563 -0.57866
vt 0.428096 -0.57866
vt 0.358593 -0.851438
vt 0.358593 -0.84497
vt 0.538213 -0.851438
vt 0.538213 -0.84497
vt 0.445472 -0.57866
vt 0.451939 -0.57866
vt 0.445472 -0.677408
vt 0.451939 -0.677408
vt 0.226169 -0.291589
vt 0.226169 -0.267914
vt 0.178426 -0.291589
vt 0.178426 -0.267914
vt 0.179849 -0.180997
vt 0.179849 -0.159392
vt 0.224601 -0.180997
vt 0.224601 -0.159392
vt 0.598065 -0.811127
vt 0.598065 -0.817594
vt 0.418446 -0.811127
vt 0.418446 -0.817594
vt 0.191908 -0.677411
vt 0.185441 -0.677411
vt 0.191908 -0.57866
vt 0.185441 -0.57866
vt 0.227918 -0.817594
vt 0.227918 -0.811127
vt 0.407537 -0.817594
vt 0.407537 -0.811127
vt 0.179837 -0.379336
vt 0.179837 -0.400902
vt 0.225691 -0.400902
vt 0.225691 -0.379336
vt 0.347684 -0.84497
vt 0.347684 -0.851438
vt 0.168065 -0.84497
vt 0.168065 -0.851438
vt 0.417188 -0.677411
vt 0.41072 -0.677411
vt 0.417188 -0.57866
vt 0.41072 -0.57866
vt 0.168065 -0.868813
vt 0.168065 -0.862346
vt 0.347684 -0.868813
vt 0.347684 -0.862346
vt 0.393344 -0.57866
vt 0.399812 -0.57866
vt 0.393344 -0.677411
vt 0.399812 -0.677411
vt 0.202817 -0.677411
vt 0.202817 -0.57866
vt 0.382436 -0.677411
vt 0.382436 -0.57866
vt 0.179837 -0.401333
vt 0.179837 -0.379767
vt 0.225691 -0.401333
vt 0.225691 -0.379767
# 24 normals
vn 0.57735 0.57735 -0.57735
vn 0.57735 0.57735 0.57735
vn -0.57735 0.57735 -0.57735
vn -0.57735 0.57735 0.57735
vn 0.57735 -0.57735 -0.57735
vn 0.57735 -0.57735 0.57735
vn 0.707107 0 -0.707107
vn 0.707107 0 0.707107
vn -0.57735 -0.57735 -0.57735
vn -0.57735 -0.57735 0.57735
vn -0.707107 0 -0.707107
vn -0.707107 0 0.707107
vn 0 0.707107 -0.707107
vn 0 0.707107 0.707107
vn 0.301511 0.904534 -0.301511
vn 0.301511 -0.904534 -0.301511
vn 0 -0.707107 0.707107
vn 0 -0.707107 -0.707107
vn -0.707107 0.707107 0
vn -0.707107 -0.707107 0
vn -0.301511 0.904534 -0.301511
vn -0.301511 -0.904534 -0.301511
vn 0.707107 -0.707107 0
vn 0.707107 0.707107 0
usemtl def_surf_mat
g Body
s off
f 1/1/1 3/3/3 2/2/2
f 3/3/3 4/4/4 2/2/2
f 5/5/5 7/7/7 6/6/6
f 7/7/7 8/8/8 6/6/6
f 9/9/9 5/11/5 10/10/10
f 5/11/5 6/12/6 10/10/10
f 11/13/11 9/15/9 12/14/12
f 9/15/9 10/16/10 12/14/12
f 5/17/5 9/19/9 7/18/7
f 9/19/9 11/20/11 7/18/7
f 10/21/10 6/23/6 12/22/12
f 6/23/6 8/24/8 12/22/12
f 13/25/1 15/27/3 14/26/2
f 15/27/3 16/28/4 14/26/2
f 17/29/5 13/31/1 18/30/6
f 13/31/1 14/32/2 18/30/6
f 19/33/9 17/35/5 20/34/10
f 17/35/5 18/36/6 20/34/10
f 15/37/3 19/39/9 16/38/4
f 19/39/9 20/40/10 16/38/4
f 17/41/5 19/43/9 13/42/1
f 19/43/9 15/44/3 13/42/1
f 20/45/10 18/47/6 16/46/4
f 18/47/6 14/48/2 16/46/4
f 21/49/1 23/51/3 22/50/2
f 23/51/3 24/52/4 22/50/2
f 25/53/5 21/55/1 26/54/6
f 21/55/1 22/56/2 26/54/6
f 27/57/9 25/59/5 28/58/10
f 25/59/5 26/60/6 28/58/10
f 23/61/3 27/63/9 24/62/4
f 27/63/9 28/64/10 24/62/4
f 25/65/5 27/67/9 21/66/1
f 27/67/9 23/68/3 21/66/1
f 28/69/10 26/71/6 24/70/4
f 26/71/6 22/72/2 24/70/4
f 29/73/1 31/75/3 30/74/2
f 31/75/3 32/76/4 30/74/2
f 33/77/5 29/79/1 34/78/6
f 29/79/1 30/80/2 34/78/6
f 35/81/9 33/83/5 36/82/10
f 33/83/5 34/84/6 36/82/10
f 31/85/3 35/87/9 32/86/4
f 35/87/9 36/88/10 32/86/4
f 33/89/5 35/91/9 29/90/1
f 35/91/9 31/92/3 29/90/1
f 36/93/10 34/95/6 32/94/4
f 34/95/6 30/96/2 32/94/4
f 37/97/1 39/99/3 38/98/2
f 39/99/3 40/100/4 38/98/2
f 41/101/5 37/103/1 42/102/6
f 37/103/1 38/104/2 42/102/6
f 43/105/9 41/107/5 44/106/10
f 41/107/5 42/108/6 44/106/10
f 39/109/3 43/111/9 40/110/4
f 43/111/9 44/112/10 40/110/4
f 41/113/5 43/115/9 37/114/1
f 43/115/9 39/116/3 37/114/1
f 44/117/10 42/119/6 40/118/4
f 42/119/6 38/120/2 40/118/4
f 1/1/1 7/121/7 3/3/3
f 7/121/7 11/122/11 3/3/3
f 3/3/3 11/122/11 4/4/4
f 11/122/11 12/123/12 4/4/4
f 2/2/2 8/124/8 1/1/1
f 8/124/8 7/121/7 1/1/1
f 4/4/4 12/123/12 2/2/2
f 12/123/12 8/124/8 2/2/2
f 45/125/13 47/126/15 46/125/14
f 47/126/15 48/126/14 46/125/14
f 49/127/16 51/128/18 50/127/17
f 51/128/18 52/128/17 50/127/17
f 53/129/19 55/130/20 54/129/4
f 55/130/20 56/130/10 54/129/4
f 51/128/18 49/127/16 45/125/13
f 49/127/16 47/126/15 45/125/13
f 50/127/17 52/128/17 48/126/14
f 52/128/17 46/125/14 48/126/14
f 57/129/3 59/126/1 58/130/9
f 59/126/1 60/127/5 58/130/9
f 54/129/4 48/126/14 53/129/19
f 48/126/14 47/126/15 53/129/19
f 55/130/20 49/127/16 56/130/10
f 49/127/16 50/127/17 56/130/10
f 56/130/10 50/127/17 54/129/4
f 50/127/17 48/126/14 54/129/4
f 59/126/1 47/126/15 60/127/5
f 47/126/15 49/127/16 60/127/5
f 57/129/3 53/129/19 59/126/1
f 53/129/19 47/126/15 59/126/1
f 60/127/5 49/127/16 58/130/9
f 49/127/16 55/130/20 58/130/9
f 58/130/9 55/130/20 57/129/3
f 55/130/20 53/129/19 57/129/3
f 61/131/21 45/125/13 62/131/14
f 45/125/13 46/125/14 62/131/14
f 51/128/18 63/132/22 52/128/17
f 63/132/22 64/132/17 52/128/17
f 65/133/23 67/134/24 66/133/6
f 67/134/24 68/134/2 66/133/6
f 63/132/22 51/128/18 61/131/21
f 51/128/18 45/125/13 61/131/21
f 52/128/17 64/132/17 46/125/14
f 64/132/17 62/131/14 46/125/14
f 69/131/3 71/134/1 70/132/9
f 71/134/1 72/133/5 70/132/9
f 62/131/14 68/134/2 61/131/21
f 68/134/2 67/134/24 61/131/21
f 63/132/22 65/133/23 64/132/17
f 65/133/23 66/133/6 64/132/17
f 64/132/17 66/133/6 62/131/14
f 66/133/6 68/134/2 62/131/14
f 61/131/21 69/131/3 63/132/22
f 69/131/3 70/132/9 63/132/22
f 67/134/24 71/134/1 61/131/21
f 71/134/1 69/131/3 61/131/21
f 63/132/22 70/132/9 65/133/23
f 70/132/9 72/133/5 65/133/23
f 65/133/23 72/133/5 67/134/24
f 72/133/5 71/134/1 67/134/24
f 73/125/13 75/126/15 74/125/14
f 75/126/15 76/126/14 74/125/14
f 77/127/16 79/128/18 78/127/17
f 79/128/18 80/128/17 78/127/17
f 81/129/19 83/130/20 82/129/4
f 83/130/20 84/130/10 82/129/4
f 79/128/18 77/127/16 73/125/13
f 77/127/16 75/126/15 73/125/13
f 78/127/17 80/128/17 76/126/14
f 80/128/17 74/125/14 76/126/14
f 85/129/3 87/126/1 86/130/9
f 87/126/1 88/127/5 86/130/9
f 82/129/4 76/126/14 81/129/19
f 76/126/14 75/126/15 81/129/19
f 83/130/20 77/127/16 84/130/10
f 77/127/16 78/127/17 84/130/10
f 84/130/10 78/127/17 82/129/4
f 78/127/17 76/126/14 82/129/4
f 87/126/1 75/126/15 88/127/5
f 75/126/15 77/127/16 88/127/5
f 85/129/3 81/129/19 87/126/1
f 81/129/19 75/126/15 87/126/1
f 88/127/5 77/127/16 86/130/9
f 77/127/16 83/130/20 86/130/9
f 86/130/9 83/130/20 85/129/3
f 83/130/20 81/129/19 85/129/3
f 89/131/21 73/125/13 90/131/14
f 73/125/13 74/125/14 90/131/14
f 79/128/18 91/132/22 80/128/17
f 91/132/22 92/132/17 80/128/17
f 93/133/23 95/134/24 94/133/6
f 95/134/24 96/134/2 94/133/6
f 91/132/22 79/128/18 89/131/21
f 79/128/18 73/125/13 89/131/21
f 80/128/17 92/132/17 74/125/14
f 92/132/17 90/131/14 74/125/14
f 97/131/3 99/134/1 98/132/9
f 99/134/1 100/133/5 98/132/9
f 90/131/14 96/134/2 89/131/21
f 96/134/2 95/134/24 89/131/21
f 91/132/22 93/133/23 92/132/17
f 93/133/23 94/133/6 92/132/17
f 92/132/17 94/133/6 90/131/14
f 94/133/6 96/134/2 90/131/14
f 89/131/21 97/131/3 91/132/22
f 97/131/3 98/132/9 91/132/22
f 95/134/24 99/134/1 89/131/21
f 99/134/1 97/131/3 89/131/21
f 91/132/22 98/132/9 93/133/23
f 98/132/9 100/133/5 93/133/23
f 93/133/23 100/133/5 95/134/24
f 100/133/5 99/134/1 95/134/24
f 101/125/13 103/126/15 102/125/14
f 103/126/15 104/126/14 102/125/14
f 105/127/16 107/128/18 106/127/17
f 107/128/18 108/128/17 106/127/17
f 109/129/19 111/130/20 110/129/4
f 111/130/20 112/130/10 110/129/4
f 107/128/18 105/127/16 101/125/13
f 105/127/16 103/126/15 101/125/13
f 106/127/17 108/128/17 104/126/14
f 108/128/17 102/125/14 104/126/14
f 113/129/3 115/126/1 114/130/9
f 115/126/1 116/127/5 114/130/9
f 110/129/4 104/126/14 109/129/19
f 104/126/14 103/126/15 109/129/19
f 111/130/20 105/127/16 112/130/10
f 105/127/16 106/127/17 112/130/10
f 112/130/10 106/127/17 110/129/4
f 106/127/17 104/126/14 110/129/4
f 115/126/1 103/126/15 116/127/5
f 103/126/15 105/127/16 116/127/5
f 113/129/3 109/129/19 115/126/1
f 109/129/19 103/126/15 115/126/1
f 116/127/5 105/127/16 114/130/9
f 105/127/16 111/130/20 114/130/9
f 114/130/9 111/130/20 113/129/3
f 111/130/20 109/129/19 113/129/3
f 117/131/21 101/125/13 118/131/14
f 101/125/13 102/125/14 118/131/14
f 107/128/18 119/132/22 108/128/17
f 119/132/22 120/132/17 108/128/17
f 121/133/23 123/134/24 122/133/6
f 123/134/24 124/134/2 122/133/6
f 119/132/22 107/128/18 117/131/21
f 107/128/18 101/125/13 117/131/21
f 108/128/17 120/132/17 102/125/14
f 120/132/17 118/131/14 102/125/14
f 125/131/3 127/134/1 126/132/9
f 127/134/1 128/133/5 126/132/9
f 118/131/14 124/134/2 117/131/21
f 124/134/2 123/134/24 117/131/21
f 119/132/22 121/133/23 120/132/17
f 121/133/23 122/133/6 120/132/17
f 120/132/17 122/133/6 118/131/14
f 122/133/6 124/134/2 118/131/14
f 117/131/21 125/131/3 119/132/22
f 125/131/3 126/132/9 119/132/22
f 123/134/24 127/134/1 117/131/21
f 127/134/1 125/131/3 117/131/21
f 119/132/22 126/132/9 121/133/23
f 126/132/9 128/133/5 121/133/23
f 121/133/23 128/133/5 123/134/24
f 128/133/5 127/134/1 123/134/24
f 129/125/13 131/126/15 130/125/14
f 131/126/15 132/126/14 130/125/14
f 133/127/16 135/128/18 134/127/17
f 135/128/18 136/128/17 134/127/17
f 137/129/19 139/130/20 138/129/4
f 139/130/20 140/130/10 138/129/4
f 135/128/18 133/127/16 129/125/13
f 133/127/16 131/126/15 129/125/13
f 134/127/17 136/128/17 132/126/14
f 136/128/17 130/125/14 132/126/14
f 141/129/3 143/126/1 142/130/9
f 143/126/1 144/127/5 142/130/9
f 138/129/4 132/126/14 137/129/19
f 132/126/14 131/126/15 137/129/19
f 139/130/20 133/127/16 140/130/10
f 133/127/16 134/127/17 140/130/10
f 140/130/10 134/127/17 138/129/4
f 134/127/17 132/126/14 138/129/4
f 143/126/1 131/126/15 144/127/5
f 131/126/15 133/127/16 144/127/5
f 141/129/3 137/129/19 143/126/1
f 137/129/19 131/126/15 143/126/1
f 144/127/5 133/127/16 142/130/9
f 133/127/16 139/130/20 142/130/9
f 142/130/9 139/130/20 141/129/3
f 139/130/20 137/129/19 141/129/3
f 145/131/21 129/125/13 146/131/14
f 129/125/13 130/125/14 146/131/14
f 135/128/18 147/132/22 136/128/17
f 147/132/22 148/132/17 136/128/17
f 149/133/23 151/134/24 150/133/6
f 151/134/24 152/134/2 150/133/6
f 147/132/22 135/128/18 145/131/21
f 135/128/18 129/125/13 145/131/21
f 136/128/17 148/132/17 130/125/14
f 148/132/17 146/131/14 130/125/14
f 153/131/3 155/134/1 154/132/9
f 155/134/1 156/133/5 154/132/9
f 146/131/14 152/134/2 145/131/21
f 152/134/2 151/134/24 145/131/21
f 147/132/22 149/133/23 148/132/17
f 149/133/23 150/133/6 148/132/17
f 148/132/17 150/133/6 146/131/14
f 150/133/6 152/134/2 146/131/14
f 145/131/21 153/131/3 147/132/22
f 153/131/3 154/132/9 147/132/22
f 151/134/24 155/134/1 145/131/21
f 155/134/1 153/131/3 145/131/21
f 147/132/22 154/132/9 149/133/23
f 154/132/9 156/133/5 149/133/23
f 149/133/23 156/133/5 151/134/24
f 156/133/5 155/134/1 151/134/24
f 157/135/1 159/136/3 158/135/2
f 159/136/3 160/136/4 158/135/2
f 161/137/5 157/139/1 162/138/6
f 157/139/1 158/140/2 162/138/6
f 163/141/9 161/143/5 164/142/10
f 161/143/5 162/144/6 164/142/10
f 159/136/3 163/145/9 160/136/4
f 163/145/9 164/145/10 160/136/4
f 161/146/5 163/145/9 157/135/1
f 163/145/9 159/136/3 157/135/1
f 164/145/10 162/146/6 160/136/4
f 162/146/6 158/135/2 160/136/4
f 165/147/1 167/149/3 166/148/2
f 167/149/3 168/150/4 166/148/2
f 169/151/5 165/153/1 170/152/6
f 165/153/1 166/154/2 170/152/6
f 171/155/9 169/157/5 172/156/10
f 169/157/5 170/158/6 172/156/10
f 167/159/3 171/161/9 168/160/4
f 171/161/9 172/162/10 168/160/4
f 169/163/5 171/165/9 165/164/1
f 171/165/9 167/166/3 165/164/1
f 172/167/10 170/169/6 168/168/4
f 170/169/6 166/170/2 168/168/4
f 173/171/1 175/173/3 174/172/2
f 175/173/3 176/174/4 174/172/2
f 177/175/5 173/177/1 178/176/6
f 173/177/1 174/178/2 178/176/6
f 179/179/9 177/181/5 180/180/10
f 177/181/5 178/182/6 180/180/10
f 175/183/3 179/184/9 176/183/4
f 179/184/9 180/184/10 176/183/4
f 177/185/5 179/184/9 173/186/1
f 179/184/9 175/183/3 173/186/1
f 180/184/10 178/185/6 176/183/4
f 178/185/6 174/186/2 176/183/4
f 181/187/1 183/189/3 182/188/2
f 183/189/3 184/190/4 182/188/2
f 185/191/5 181/193/1 186/192/6
f 181/193/1 182/194/2 186/192/6
f 187/195/9 185/197/5 188/196/10
f 185/197/5 186/198/6 188/196/10
f 183/199/3 187/201/9 184/200/4
f 187/201/9 188/202/10 184/200/4
f 185/203/5 187/205/9 181/204/1
f 187/205/9 183/206/3 181/204/1
f 188/207/10 186/209/6 184/208/4
f 186/209/6 182/210/2 184/208/4
