# Wavefront OBJ
# Created by fragMOTION 1.3.7
# http://www.fragmosoft.com

mtllib ContDoorLeft.mtl
# 84 vertices
v 3.97567 1.01596 -0.374113
v 3.24776 0.496103 -0.374113
v 4.44695 0.489645 -0.374113
v 3.25057 5.43146 -0.374113
v 3.97567 4.9116 -0.374113
v 4.44615 5.43078 -0.374113
v 3.24802 0.947653 -0.374113
v 1.43385 2.57499 -0.374113
v 0.799623 2.46702 -0.374113
v 3.25031 4.98134 -0.374113
v 1.43367 3.35263 -0.374113
v 0.799623 3.46054 -0.374113
v 4.4479 5.83328 -0.471332
v 3.25057 5.43146 -0.470826
v 4.4479 5.43078 -0.470826
v 0.391544 5.83374 -0.471332
v 0.39095 5.43078 -0.470826
v 0.390217 0.093031 -0.46977
v 4.44642 0.489679 -0.470826
v 0.391834 0.489408 -0.470826
v 4.44678 0.094246 -0.46977
v 3.97567 4.9116 -0.134061
v 1.43385 2.57482 -0.134061
v 3.97567 1.01596 -0.134061
v 1.43367 3.35263 -0.134061
v 0.799623 5.43146 -0.134061
v 3.25031 4.98134 -0.134061
v 3.25057 5.43146 -0.134061
v 0.799623 3.46054 -0.134061
v 3.24802 0.947653 -0.134061
v 0.799623 0.496103 -0.134061
v 3.24776 0.496103 -0.134061
v 0.799623 2.46702 -0.134061
v 0.799623 5.43146 -0.374113
v 0.799623 0.496103 -0.374113
v 0.391237 0.488853 -0.374113
v 0.393556 0.092955 -0.183737
v 0.394051 5.83308 -0.185438
v 0.391237 5.4301 -0.374113
v 0.006776 5.83216 -0.18379
v 0.006776 0.094913 -0.18379
v 0.186402 0.094913 0
v 0.186402 5.83216 0
v 3.24776 0.496103 0.374113
v 3.97567 1.01596 0.374113
v 4.44695 0.489645 0.374113
v 3.97567 4.9116 0.374113
v 3.25057 5.43146 0.374113
v 4.44615 5.43078 0.374113
v 3.25031 4.98134 0.374113
v 1.43367 3.35263 0.374113
v 0.799623 3.46054 0.374113
v 3.24802 0.947653 0.374113
v 1.43385 2.57499 0.374113
v 0.799623 2.46702 0.374113
v 0.391544 5.83374 0.471332
v 3.25057 5.43146 0.470826
v 0.39095 5.43078 0.470826
v 4.4479 5.83328 0.471332
v 4.4479 5.43078 0.470826
v 4.44642 0.489679 0.470826
v 0.390217 0.093031 0.46977
v 0.391834 0.489408 0.470826
v 4.44678 0.094246 0.46977
v 1.43385 2.57482 0.134061
v 3.97567 4.9116 0.134061
v 3.97567 1.01596 0.134061
v 1.43367 3.35263 0.134061
v 3.25031 4.98134 0.134061
v 0.799623 5.43146 0.134061
v 3.25057 5.43146 0.134061
v 0.799623 3.46054 0.134061
v 0.799623 0.496103 0.134061
v 3.24802 0.947653 0.134061
v 3.24776 0.496103 0.134061
v 0.799623 2.46702 0.134061
v 0.799623 5.43146 0.374113
v 0.799623 0.496103 0.374113
v 0.393556 0.092955 0.183737
v 0.391237 0.488853 0.374113
v 0.394051 5.83308 0.185438
v 0.391237 5.4301 0.374113
v 0.006776 5.83216 0.18379
v 0.006776 0.094913 0.18379
# 75 texture vertices
vt 0.400246 -0.721231
vt 0.33668 -0.767027
vt 0.44069 -0.767201
vt 0.336765 -0.336788
vt 0.400084 -0.382393
vt 0.440462 -0.336777
vt 0.336958 -0.727203
vt 0.179096 -0.585734
vt 0.123937 -0.595152
vt 0.336991 -0.376357
vt 0.179049 -0.518096
vt 0.123895 -0.508736
vt 0.43929 -0.29095
vt 0.336432 -0.327515
vt 0.439693 -0.327518
vt 0.090451 -0.290991
vt 0.089809 -0.327614
vt 0.090316 -0.812833
vt 0.439591 -0.776255
vt 0.089911 -0.776802
vt 0.439173 -0.812201
vt 0.387094 -0.405329
vt 0.197607 -0.57953
vt 0.387094 -0.695739
vt 0.197594 -0.521546
vt 0.135355 -0.345094
vt 0.314169 -0.377937
vt 0.314188 -0.345094
vt 0.135355 -0.488901
vt 0.316542 -0.725328
vt 0.134021 -0.75899
vt 0.316523 -0.75899
vt 0.134021 -0.612063
vt 0.731615 -0.927784
vt 0.988584 -0.943617
vt 0.988584 -0.927783
vt 0.731615 -0.943618
vt 0.584085 -0.927783
vt 0.584085 -0.943618
vt 0.532789 -0.927783
vt 0.532778 -0.943618
vt 0.382372 -0.927783
vt 0.382372 -0.943618
vt 0.842189 -0.875638
vt 0.686074 -0.890928
vt 0.686074 -0.875638
vt 0.842189 -0.890928
vt 0.988373 -0.875638
vt 0.988373 -0.890928
vt 0.657403 -0.875638
vt 0.537597 -0.890928
vt 0.537597 -0.875638
vt 0.657403 -0.890928
vt 0.657044 -0.901679
vt 0.685765 -0.916948
vt 0.685765 -0.901679
vt 0.657044 -0.916948
vt 0.537464 -0.901679
vt 0.537464 -0.916948
vt 0.841482 -0.901679
vt 0.98749 -0.916948
vt 0.98749 -0.90168
vt 0.841482 -0.916948
vt 0.08209 -0.776852
vt 0.065718 -0.812996
vt 0.065864 -0.290895
vt 0.08209 -0.327684
vt 0.030618 -0.290816
vt 0.030517 -0.812967
vt 0.124345 -0.767243
vt 0.088765 -0.336945
vt 0.088924 -0.767595
vt 0.124186 -0.336872
vt 0.01379 -0.812964
vt 0.013891 -0.290813
# 75 normals
vn 0 0 -1
vn 0.001446 0.814207 -0.580573
vn 0.002409 0.447265 -0.894398
vn -0.000201 -0.707107 -0.707107
vn -0.000316 -0.554699 -0.832051
vn 0 -0.001258 -0.999999
vn -0.00018 -0.800848 -0.598868
vn -0.000402 -0.707547 -0.706666
vn -0.709179 0.000652 -0.705028
vn -0.4072 -0.817214 -0.40786
vn -0.708068 -0.000537 -0.706144
vn 0.001853 0.694033 -0.719941
vn -0.302674 0.891136 -0.33803
vn 1e-006 -0.002671 -0.999996
vn -0.866129 -0.499821 0
vn -1 0 0
vn 0.026734 -0.999643 0
vn 0.768216 -0.64019 0
vn 0.947428 -0.319969 0
vn 0.94733 0.320258 0.000224
vn 0.768145 0.640276 0.000224
vn 0.522818 0.852444 0.000298
vn 0.447214 -0.894427 0
vn -0.447316 -0.894376 0
vn -0.894633 -0.446802 0
vn 0.894427 -0.447214 0
vn 1 0 0
vn -0.770463 0.637485 0
vn -0.527282 0.84969 0
vn -0.947732 0.319066 0
vn -0.947993 -0.318291 0
vn -0.894221 0.447625 0
vn -0.447111 0.894479 0
vn -0.770675 -0.637229 0
vn -0.527281 -0.849691 0
vn 0.894427 0.447214 0
vn 0.447214 0.894427 0
vn -0.999982 0.001273 0.005901
vn -0.837307 -0.000125 -0.546733
vn -0.898965 0.001197 -0.43802
vn -0.999953 0.001111 0.009663
vn -0.922072 -0.00019 -0.387018
vn -0.921645 0 -0.388033
vn -0.00618 0.695511 -0.718489
vn 0.000807 -0.242127 -0.970244
vn -0.012586 0.708982 -0.705114
vn 0.00113 -0.948585 -0.316521
vn -0.715162 0 0.698959
vn 0.001446 0.814207 0.580573
vn 0 0 1
vn 0.002409 0.447265 0.894398
vn -0.000201 -0.707107 0.707107
vn -0.000316 -0.554699 0.832051
vn -0.709179 0.000652 0.705028
vn -0.00018 -0.800848 0.598868
vn -0.4072 -0.817214 0.40786
vn 0 -0.001258 0.999999
vn -0.000402 -0.707547 0.706666
vn 0.001853 0.694033 0.719941
vn -0.708068 -0.000537 0.706144
vn -0.302674 0.891136 0.33803
vn 1e-006 -0.002671 0.999996
vn 0.94733 0.320258 -0.000224
vn 0.522819 0.852444 -0.000298
vn -0.837307 -0.000125 0.546733
vn -0.999982 0.001273 -0.005901
vn -0.898965 0.001197 0.43802
vn -0.999953 0.001111 -0.009663
vn -0.922072 -0.00019 0.387018
vn -0.921645 0 0.388033
vn 0.001487 -0.445944 0.89506
vn 0.00113 -0.948585 0.316521
vn -0.005622 0.316708 0.948506
vn -0.007844 0.882668 0.469931
vn -0.715162 0 -0.698959
usemtl Material02
g Group
s off
f 1/1/1 3/3/3 2/2/2
f 4/4/4 6/6/5 5/5/1
f 1/1/1 2/2/2 7/7/1
f 8/8/1 1/1/1 7/7/1
f 8/8/1 7/7/1 9/9/1
f 10/10/1 4/4/4 5/5/1
f 10/10/1 5/5/1 11/11/1
f 12/12/1 10/10/1 11/11/1
f 8/8/1 9/9/1 12/12/1
f 8/8/1 12/12/1 11/11/1
f 13/13/6 15/15/8 14/14/7
f 16/16/9 13/13/6 14/14/7
f 17/17/10 16/16/9 14/14/7
f 18/18/11 20/20/13 19/19/12
f 21/21/14 18/18/11 19/19/12
f 22/22/1 24/24/1 23/23/1
f 25/25/1 22/22/1 23/23/1
f 26/26/1 28/28/1 27/27/1
f 29/29/1 26/26/1 27/27/1
f 30/30/1 32/32/1 31/31/1
f 33/33/1 30/30/1 31/31/1
f 5/34/15 1/36/16 24/35/16
f 22/37/17 5/34/15 24/35/16
f 11/38/18 5/34/15 22/37/17
f 25/39/19 11/38/18 22/37/17
f 8/40/20 11/38/18 25/39/19
f 23/41/21 8/40/20 25/39/19
f 1/42/22 8/40/20 23/41/21
f 24/43/22 1/42/22 23/41/21
f 34/44/23 4/46/25 28/45/24
f 26/47/26 34/44/23 28/45/24
f 12/48/27 34/44/23 26/47/26
f 29/49/27 12/48/27 26/47/26
f 10/50/28 12/52/29 29/51/29
f 27/53/30 10/50/28 29/51/29
f 4/46/25 10/50/28 27/53/30
f 28/45/24 4/46/25 27/53/30
f 7/54/31 2/56/33 32/55/32
f 30/57/34 7/54/31 32/55/32
f 9/58/35 7/54/31 30/57/34
f 33/59/35 9/58/35 30/57/34
f 35/60/36 9/62/27 33/61/27
f 31/63/37 35/60/36 33/61/27
f 2/56/33 35/60/36 31/63/37
f 32/55/32 2/56/33 31/63/37
f 36/64/38 18/18/11 37/65/39
f 16/16/9 39/67/41 38/66/40
f 39/67/41 36/64/38 37/65/39
f 38/66/40 39/67/41 37/65/39
f 37/65/39 41/69/43 40/68/42
f 38/66/40 37/65/39 40/68/42
f 35/70/44 36/72/46 39/71/45
f 9/9/1 35/70/44 39/71/45
f 12/12/1 9/9/1 39/71/45
f 12/12/1 39/71/45 34/73/47
f 6/6/5 3/3/3 1/1/1
f 5/5/1 6/6/5 1/1/1
f 34/73/47 17/17/10 14/14/7
f 4/4/4 34/73/47 14/14/7
f 6/6/5 4/4/4 14/14/7
f 15/15/8 6/6/5 14/14/7
f 34/73/47 39/71/45 17/17/10
f 39/67/41 16/16/9 17/17/10
f 2/2/2 3/3/3 19/19/12
f 2/2/2 19/19/12 20/20/13
f 35/70/44 2/2/2 20/20/13
f 36/72/46 35/70/44 20/20/13
f 18/18/11 36/64/38 20/20/13
f 42/74/48 43/75/48 40/68/42
f 41/69/43 42/74/48 40/68/42
f 44/2/49 46/3/51 45/1/50
f 47/5/50 49/6/53 48/4/52
f 47/5/50 48/4/52 50/10/50
f 51/11/50 47/5/50 50/10/50
f 51/11/50 50/10/50 52/12/50
f 53/7/50 44/2/49 45/1/50
f 53/7/50 45/1/50 54/8/50
f 55/9/50 53/7/50 54/8/50
f 51/11/50 52/12/50 55/9/50
f 55/9/50 54/8/50 51/11/50
f 56/16/54 58/17/56 57/14/55
f 57/14/55 60/15/58 59/13/57
f 59/13/57 56/16/54 57/14/55
f 61/19/59 63/20/61 62/18/60
f 64/21/62 61/19/59 62/18/60
f 65/23/50 67/24/50 66/22/50
f 68/25/50 65/23/50 66/22/50
f 69/27/50 71/28/50 70/26/50
f 72/29/50 69/27/50 70/26/50
f 73/31/50 75/32/50 74/30/50
f 76/33/50 73/31/50 74/30/50
f 67/35/16 45/36/16 47/34/15
f 66/37/17 67/35/16 47/34/15
f 66/37/17 47/34/15 51/38/18
f 68/39/19 66/37/17 51/38/18
f 68/39/19 51/38/18 54/40/63
f 65/41/21 68/39/19 54/40/63
f 65/41/21 54/40/63 45/42/64
f 67/43/64 65/41/21 45/42/64
f 71/45/24 48/46/25 77/44/23
f 70/47/26 71/45/24 77/44/23
f 70/47/26 77/44/23 52/48/27
f 72/49/27 70/47/26 52/48/27
f 72/51/29 52/52/29 50/50/28
f 69/53/30 72/51/29 50/50/28
f 69/53/30 50/50/28 48/46/25
f 71/45/24 69/53/30 48/46/25
f 75/55/32 44/56/33 53/54/31
f 74/57/34 75/55/32 53/54/31
f 74/57/34 53/54/31 55/58/35
f 76/59/35 74/57/34 55/58/35
f 76/61/27 55/62/27 78/60/36
f 73/63/37 76/61/27 78/60/36
f 73/63/37 78/60/36 44/56/33
f 75/55/32 73/63/37 44/56/33
f 79/65/65 62/18/60 80/64/66
f 81/66/67 82/67/68 56/16/54
f 79/65/65 80/64/66 82/67/68
f 81/66/67 79/65/65 82/67/68
f 83/68/69 84/69/70 79/65/65
f 81/66/67 83/68/69 79/65/65
f 52/12/50 77/73/72 82/71/71
f 52/12/50 82/71/71 80/72/73
f 55/9/50 52/12/50 80/72/73
f 78/70/74 55/9/50 80/72/73
f 49/6/53 47/5/50 45/1/50
f 46/3/51 49/6/53 45/1/50
f 77/73/72 48/4/52 57/14/55
f 58/17/56 77/73/72 57/14/55
f 57/14/55 48/4/52 49/6/53
f 60/15/58 57/14/55 49/6/53
f 58/17/56 82/71/71 77/73/72
f 58/17/56 56/16/54 82/67/68
f 61/19/59 46/3/51 44/2/49
f 44/2/49 78/70/74 63/20/61
f 61/19/59 44/2/49 63/20/61
f 63/20/61 78/70/74 80/72/73
f 63/20/61 80/64/66 62/18/60
f 83/68/69 43/75/75 42/74/75
f 84/69/70 83/68/69 42/74/75
f 1/1/1 3/3/3 2/2/2
f 4/4/4 6/6/5 5/5/1
f 1/1/1 2/2/2 7/7/1
f 8/8/1 1/1/1 7/7/1
f 8/8/1 7/7/1 9/9/1
f 10/10/1 4/4/4 5/5/1
f 10/10/1 5/5/1 11/11/1
f 12/12/1 10/10/1 11/11/1
f 8/8/1 9/9/1 12/12/1
f 8/8/1 12/12/1 11/11/1
f 13/13/6 15/15/8 14/14/7
f 16/16/9 13/13/6 14/14/7
f 17/17/10 16/16/9 14/14/7
f 18/18/11 20/20/13 19/19/12
f 21/21/14 18/18/11 19/19/12
f 22/22/1 24/24/1 23/23/1
f 25/25/1 22/22/1 23/23/1
f 26/26/1 28/28/1 27/27/1
f 29/29/1 26/26/1 27/27/1
f 30/30/1 32/32/1 31/31/1
f 33/33/1 30/30/1 31/31/1
f 5/34/15 1/36/16 24/35/16
f 22/37/17 5/34/15 24/35/16
f 11/38/18 5/34/15 22/37/17
f 25/39/19 11/38/18 22/37/17
f 8/40/20 11/38/18 25/39/19
f 23/41/21 8/40/20 25/39/19
f 1/42/22 8/40/20 23/41/21
f 24/43/64 1/42/22 23/41/21
f 34/44/23 4/46/25 28/45/24
f 26/47/26 34/44/23 28/45/24
f 12/48/27 34/44/23 26/47/26
f 29/49/27 12/48/27 26/47/26
f 10/50/28 12/52/29 29/51/29
f 27/53/30 10/50/28 29/51/29
f 4/46/25 10/50/28 27/53/30
f 28/45/24 4/46/25 27/53/30
f 7/54/31 2/56/33 32/55/32
f 30/57/34 7/54/31 32/55/32
f 9/58/35 7/54/31 30/57/34
f 33/59/35 9/58/35 30/57/34
f 35/60/36 9/62/27 33/61/27
f 31/63/37 35/60/36 33/61/27
f 2/56/33 35/60/36 31/63/37
f 32/55/32 2/56/33 31/63/37
f 36/64/38 18/18/11 37/65/39
f 16/16/9 39/67/41 38/66/40
f 39/67/41 36/64/38 37/65/39
f 38/66/40 39/67/41 37/65/39
f 37/65/39 41/69/43 40/68/42
f 38/66/40 37/65/39 40/68/42
f 35/70/44 36/72/46 39/71/45
f 9/9/1 35/70/44 39/71/45
f 12/12/1 9/9/1 39/71/45
f 12/12/1 39/71/45 34/73/47
f 6/6/5 3/3/3 1/1/1
f 5/5/1 6/6/5 1/1/1
f 34/73/47 17/17/10 14/14/7
f 4/4/4 34/73/47 14/14/7
f 6/6/5 4/4/4 14/14/7
f 15/15/8 6/6/5 14/14/7
f 34/73/47 39/71/45 17/17/10
f 39/67/41 16/16/9 17/17/10
f 2/2/2 3/3/3 19/19/12
f 2/2/2 19/19/12 20/20/13
f 35/70/44 2/2/2 20/20/13
f 36/72/46 35/70/44 20/20/13
f 18/18/11 36/64/38 20/20/13
f 42/74/48 43/75/48 40/68/42
f 41/69/43 42/74/48 40/68/42
f 44/2/49 46/3/51 45/1/50
f 47/5/50 49/6/53 48/4/52
f 47/5/50 48/4/52 50/10/50
f 51/11/50 47/5/50 50/10/50
f 51/11/50 50/10/50 52/12/50
f 53/7/50 44/2/49 45/1/50
f 53/7/50 45/1/50 54/8/50
f 55/9/50 53/7/50 54/8/50
f 51/11/50 52/12/50 55/9/50
f 55/9/50 54/8/50 51/11/50
f 56/16/54 58/17/56 57/14/55
f 57/14/55 60/15/58 59/13/57
f 59/13/57 56/16/54 57/14/55
f 61/19/59 63/20/61 62/18/60
f 64/21/62 61/19/59 62/18/60
f 65/23/50 67/24/50 66/22/50
f 68/25/50 65/23/50 66/22/50
f 69/27/50 71/28/50 70/26/50
f 72/29/50 69/27/50 70/26/50
f 73/31/50 75/32/50 74/30/50
f 76/33/50 73/31/50 74/30/50
f 67/35/16 45/36/16 47/34/15
f 66/37/17 67/35/16 47/34/15
f 66/37/17 47/34/15 51/38/18
f 68/39/19 66/37/17 51/38/18
f 68/39/19 51/38/18 54/40/63
f 65/41/21 68/39/19 54/40/63
f 65/41/21 54/40/63 45/42/64
f 67/43/64 65/41/21 45/42/64
f 71/45/24 48/46/25 77/44/23
f 70/47/26 71/45/24 77/44/23
f 70/47/26 77/44/23 52/48/27
f 72/49/27 70/47/26 52/48/27
f 72/51/29 52/52/29 50/50/28
f 69/53/30 72/51/29 50/50/28
f 69/53/30 50/50/28 48/46/25
f 71/45/24 69/53/30 48/46/25
f 75/55/32 44/56/33 53/54/31
f 74/57/34 75/55/32 53/54/31
f 74/57/34 53/54/31 55/58/35
f 76/59/35 74/57/34 55/58/35
f 76/61/27 55/62/27 78/60/36
f 73/63/37 76/61/27 78/60/36
f 73/63/37 78/60/36 44/56/33
f 75/55/32 73/63/37 44/56/33
f 79/65/65 62/18/60 80/64/66
f 81/66/67 82/67/68 56/16/54
f 79/65/65 80/64/66 82/67/68
f 81/66/67 79/65/65 82/67/68
f 83/68/69 84/69/70 79/65/65
f 81/66/67 83/68/69 79/65/65
f 52/12/50 77/73/72 82/71/71
f 52/12/50 82/71/71 80/72/73
f 55/9/50 52/12/50 80/72/73
f 78/70/74 55/9/50 80/72/73
f 49/6/53 47/5/50 45/1/50
f 46/3/51 49/6/53 45/1/50
f 77/73/72 48/4/52 57/14/55
f 58/17/56 77/73/72 57/14/55
f 57/14/55 48/4/52 49/6/53
f 60/15/58 57/14/55 49/6/53
f 58/17/56 82/71/71 77/73/72
f 58/17/56 56/16/54 82/67/68
f 61/19/59 46/3/51 44/2/49
f 44/2/49 78/70/74 63/20/61
f 61/19/59 44/2/49 63/20/61
f 63/20/61 78/70/74 80/72/73
f 63/20/61 80/64/66 62/18/60
f 83/68/69 43/75/75 42/74/75
f 84/69/70 83/68/69 42/74/75
