# Wavefront OBJ
# Created by fragMOTION 1.3.7
# http://www.fragmosoft.com

mtllib ContDoorRight.mtl
# 84 vertices
v -4.43685 0.489645 -0.374113
v -3.23765 0.496103 -0.374113
v -3.96557 1.01596 -0.374113
v -4.43605 5.43078 -0.374113
v -3.96557 4.9116 -0.374113
v -3.24047 5.43146 -0.374113
v -3.23792 0.947653 -0.374113
v -1.42375 2.57499 -0.374113
v -0.789522 2.46702 -0.374113
v -3.24021 4.98134 -0.374113
v -1.42357 3.35263 -0.374113
v -0.789522 3.46054 -0.374113
v -4.4378 5.43078 -0.470826
v -3.24047 5.43146 -0.470826
v -4.4378 5.83328 -0.471332
v -0.381443 5.83374 -0.471332
v -0.380849 5.43078 -0.470826
v -0.381733 0.489408 -0.470826
v -4.43632 0.489679 -0.470826
v -0.380116 0.093031 -0.46977
v -4.43668 0.094246 -0.46977
v -3.96557 1.01596 -0.134061
v -1.42375 2.57482 -0.134061
v -3.96557 4.9116 -0.134061
v -1.42357 3.35263 -0.134061
v -3.24047 5.43146 -0.134061
v -3.24021 4.98134 -0.134061
v -0.789522 5.43146 -0.134061
v -0.789522 3.46054 -0.134061
v -3.23765 0.496103 -0.134061
v -0.789522 0.496103 -0.134061
v -3.23792 0.947653 -0.134061
v -0.789522 2.46702 -0.134061
v -0.789522 5.43146 -0.374113
v -0.789522 0.496103 -0.374113
v -0.383455 0.092955 -0.183737
v -0.381136 0.488853 -0.374113
v -0.381136 5.4301 -0.374113
v -0.38395 5.83308 -0.185438
v 0.003325 0.094913 -0.18379
v 0.003325 5.83216 -0.18379
v 0.187335 5.83216 0
v 0.187335 0.094913 0
v -4.43685 0.489645 0.374113
v -3.96557 1.01596 0.374113
v -3.23765 0.496103 0.374113
v -4.43605 5.43078 0.374113
v -3.24047 5.43146 0.374113
v -3.96557 4.9116 0.374113
v -3.24021 4.98134 0.374113
v -1.42357 3.35263 0.374113
v -0.789522 3.46054 0.374113
v -3.23792 0.947653 0.374113
v -1.42375 2.57499 0.374113
v -0.789522 2.46702 0.374113
v -0.380849 5.43078 0.470826
v -3.24047 5.43146 0.470826
v -0.381443 5.83374 0.471332
v -4.4378 5.43078 0.470826
v -4.4378 5.83328 0.471332
v -0.381733 0.489408 0.470826
v -0.380116 0.093031 0.46977
v -4.43632 0.489679 0.470826
v -4.43668 0.094246 0.46977
v -3.96557 1.01596 0.134061
v -3.96557 4.9116 0.134061
v -1.42375 2.57482 0.134061
v -1.42357 3.35263 0.134061
v -3.24047 5.43146 0.134061
v -0.789522 5.43146 0.134061
v -3.24021 4.98134 0.134061
v -0.789522 3.46054 0.134061
v -3.23765 0.496103 0.134061
v -3.23792 0.947653 0.134061
v -0.789522 0.496103 0.134061
v -0.789522 2.46702 0.134061
v -0.789522 5.43146 0.374113
v -0.789522 0.496103 0.374113
v -0.381136 0.488853 0.374113
v -0.383455 0.092955 0.183737
v -0.381136 5.4301 0.374113
v -0.38395 5.83308 0.185438
v 0.003325 0.094913 0.18379
v 0.003325 5.83216 0.18379
# 75 texture vertices
vt 0.44069 -0.767201
vt 0.33668 -0.767027
vt 0.400246 -0.721231
vt 0.440462 -0.336777
vt 0.400084 -0.382393
vt 0.336765 -0.336788
vt 0.336958 -0.727203
vt 0.179096 -0.585734
vt 0.123937 -0.595152
vt 0.336991 -0.376357
vt 0.179049 -0.518096
vt 0.123895 -0.508736
vt 0.439693 -0.327518
vt 0.336432 -0.327515
vt 0.43929 -0.29095
vt 0.090451 -0.290991
vt 0.089809 -0.327614
vt 0.089911 -0.776802
vt 0.439591 -0.776255
vt 0.090316 -0.812833
vt 0.439173 -0.812201
vt 0.387094 -0.695739
vt 0.197607 -0.57953
vt 0.387094 -0.405329
vt 0.197594 -0.521546
vt 0.314188 -0.345094
vt 0.314169 -0.377937
vt 0.135355 -0.345094
vt 0.135355 -0.488901
vt 0.316523 -0.75899
vt 0.134021 -0.75899
vt 0.316542 -0.725328
vt 0.134021 -0.612063
vt 0.988584 -0.927783
vt 0.988584 -0.943617
vt 0.731615 -0.927784
vt 0.731615 -0.943618
vt 0.584085 -0.927783
vt 0.584085 -0.943618
vt 0.532789 -0.927783
vt 0.532778 -0.943618
vt 0.382372 -0.927783
vt 0.382372 -0.943618
vt 0.686074 -0.875638
vt 0.686074 -0.890928
vt 0.842189 -0.875638
vt 0.842189 -0.890928
vt 0.988373 -0.875638
vt 0.988373 -0.890928
vt 0.537597 -0.875638
vt 0.537597 -0.890928
vt 0.657403 -0.875638
vt 0.657403 -0.890928
vt 0.685765 -0.901679
vt 0.685765 -0.916948
vt 0.657044 -0.901679
vt 0.657044 -0.916948
vt 0.537464 -0.901679
vt 0.537464 -0.916948
vt 0.98749 -0.90168
vt 0.98749 -0.916948
vt 0.841482 -0.901679
vt 0.841482 -0.916948
vt 0.065718 -0.812996
vt 0.08209 -0.776852
vt 0.08209 -0.327684
vt 0.065864 -0.290895
vt 0.030517 -0.812967
vt 0.030618 -0.290816
vt 0.088924 -0.767595
vt 0.088765 -0.336945
vt 0.124345 -0.767243
vt 0.124186 -0.336872
vt 0.013891 -0.290813
vt 0.01379 -0.812964
# 73 normals
vn -0.002409 0.447265 -0.894398
vn -0.001446 0.814207 -0.580573
vn 0 0 -1
vn 0.000316 -0.554699 -0.832051
vn 0.000201 -0.707107 -0.707107
vn 0.000402 -0.707547 -0.706666
vn 0.00018 -0.800848 -0.598868
vn 0 -0.001258 -0.999999
vn 0.709179 0.000651 -0.705028
vn 0.4072 -0.817214 -0.40786
vn 0.302674 0.891136 -0.33803
vn -0.001853 0.694033 -0.719941
vn 0.708068 -0.000537 -0.706144
vn -1e-006 -0.00267 -0.999996
vn 1 0 0
vn 0.866129 -0.499821 0
vn -0.026734 -0.999643 0
vn -0.768216 -0.64019 0
vn -0.947428 -0.319969 0
vn -0.94733 0.320258 0.000224
vn -0.768145 0.640276 0.000224
vn -0.522818 0.852444 0.000298
vn 0.894633 -0.446802 0
vn 0.447316 -0.894376 0
vn -0.447214 -0.894427 0
vn -0.894427 -0.447214 0
vn -1 0 0
vn 0.527282 0.84969 0
vn 0.770463 0.637485 0
vn 0.947732 0.319066 0
vn 0.447111 0.894479 0
vn 0.894221 0.447626 0
vn 0.947993 -0.31829 0
vn 0.770675 -0.637229 0
vn 0.527281 -0.849691 0
vn -0.894427 0.447214 0
vn -0.447214 0.894427 0
vn 0.837308 -0.000125 -0.546732
vn 0.999982 0.001273 0.005901
vn 0.999953 0.001111 0.009663
vn 0.898965 0.001197 -0.438019
vn 0.382344 0 -0.92402
vn 0.383359 -8e-005 -0.923599
vn 0.012586 0.708982 -0.705114
vn -0.000807 -0.242127 -0.970244
vn 0.00618 0.695511 -0.718489
vn -0.00113 -0.948585 -0.316521
vn -0.002409 0.447265 0.894398
vn 0 0 1
vn -0.001446 0.814207 0.580573
vn 0.000316 -0.554699 0.832051
vn 0.000201 -0.707107 0.707107
vn 0.4072 -0.817214 0.40786
vn 0.00018 -0.800848 0.598868
vn 0.709179 0.000651 0.705028
vn 0.000402 -0.707547 0.706666
vn 0 -0.001258 0.999999
vn 0.302674 0.891136 0.33803
vn 0.708068 -0.000537 0.706144
vn -0.001853 0.694033 0.719941
vn -1e-006 -0.00267 0.999996
vn -0.94733 0.320258 -0.000224
vn -0.522818 0.852444 -0.000298
vn 0.999982 0.001273 -0.005901
vn 0.837308 -0.000125 0.546732
vn 0.999953 0.001111 -0.009663
vn 0.898965 0.001197 0.438019
vn 0.382344 0 0.92402
vn 0.383359 -8e-005 0.923599
vn -0.00113 -0.948585 0.316521
vn -0.001487 -0.445944 0.89506
vn 0.005622 0.316708 0.948506
vn 0.007844 0.882668 0.469931
usemtl Material01
g Group
s off
f 1/1/1 3/3/3 2/2/2
f 4/4/4 6/6/5 5/5/3
f 2/2/2 3/3/3 7/7/3
f 3/3/3 8/8/3 7/7/3
f 7/7/3 8/8/3 9/9/3
f 6/6/5 10/10/3 5/5/3
f 5/5/3 10/10/3 11/11/3
f 10/10/3 12/12/3 11/11/3
f 9/9/3 8/8/3 12/12/3
f 12/12/3 8/8/3 11/11/3
f 13/13/6 15/15/8 14/14/7
f 15/15/8 16/16/9 14/14/7
f 16/16/9 17/17/10 14/14/7
f 18/18/11 20/20/13 19/19/12
f 20/20/13 21/21/14 19/19/12
f 22/22/3 24/24/3 23/23/3
f 24/24/3 25/25/3 23/23/3
f 26/26/3 28/28/3 27/27/3
f 28/28/3 29/29/3 27/27/3
f 30/30/3 32/32/3 31/31/3
f 32/32/3 33/33/3 31/31/3
f 3/34/15 5/36/16 22/35/15
f 5/36/16 24/37/17 22/35/15
f 5/36/16 11/38/18 24/37/17
f 11/38/18 25/39/19 24/37/17
f 11/38/18 8/40/20 25/39/19
f 8/40/20 23/41/21 25/39/19
f 8/40/20 3/42/22 23/41/21
f 3/42/22 22/43/22 23/41/21
f 6/44/23 34/46/25 26/45/24
f 34/46/25 28/47/26 26/45/24
f 34/46/25 12/48/27 28/47/26
f 12/48/27 29/49/27 28/47/26
f 12/50/28 10/52/29 29/51/28
f 10/52/29 27/53/30 29/51/28
f 10/52/29 6/44/23 27/53/30
f 6/44/23 26/45/24 27/53/30
f 2/54/31 7/56/33 30/55/32
f 7/56/33 32/57/34 30/55/32
f 7/56/33 9/58/35 32/57/34
f 9/58/35 33/59/35 32/57/34
f 9/60/27 35/62/36 33/61/27
f 35/62/36 31/63/37 33/61/27
f 35/62/36 2/54/31 31/63/37
f 2/54/31 30/55/32 31/63/37
f 20/20/13 37/65/39 36/64/38
f 38/66/40 16/16/9 39/67/41
f 37/65/39 38/66/40 36/64/38
f 38/66/40 39/67/41 36/64/38
f 40/68/42 36/64/38 41/69/43
f 36/64/38 39/67/41 41/69/43
f 37/70/44 35/72/46 38/71/45
f 35/72/46 9/9/3 38/71/45
f 9/9/3 12/12/3 38/71/45
f 38/71/45 12/12/3 34/73/47
f 1/1/1 4/4/4 3/3/3
f 4/4/4 5/5/3 3/3/3
f 17/17/10 34/73/47 14/14/7
f 34/73/47 6/6/5 14/14/7
f 6/6/5 4/4/4 14/14/7
f 4/4/4 13/13/6 14/14/7
f 38/71/45 34/73/47 17/17/10
f 16/16/9 38/66/40 17/17/10
f 1/1/1 2/2/2 19/19/12
f 19/19/12 2/2/2 18/18/11
f 2/2/2 35/72/46 18/18/11
f 35/72/46 37/70/44 18/18/11
f 37/65/39 20/20/13 18/18/11
f 42/74/15 43/75/15 41/69/43
f 43/75/15 40/68/42 41/69/43
f 44/1/48 46/2/50 45/3/49
f 47/4/51 49/5/49 48/6/52
f 48/6/52 49/5/49 50/10/49
f 49/5/49 51/11/49 50/10/49
f 50/10/49 51/11/49 52/12/49
f 46/2/50 53/7/49 45/3/49
f 45/3/49 53/7/49 54/8/49
f 53/7/49 55/9/49 54/8/49
f 52/12/49 51/11/49 55/9/49
f 54/8/49 55/9/49 51/11/49
f 56/17/53 58/16/55 57/14/54
f 59/13/56 57/14/54 60/15/57
f 58/16/55 60/15/57 57/14/54
f 61/18/58 63/19/60 62/20/59
f 63/19/60 64/21/61 62/20/59
f 65/22/49 67/23/49 66/24/49
f 67/23/49 68/25/49 66/24/49
f 69/26/49 71/27/49 70/28/49
f 71/27/49 72/29/49 70/28/49
f 73/30/49 75/31/49 74/32/49
f 75/31/49 76/33/49 74/32/49
f 45/34/15 65/35/15 49/36/16
f 65/35/15 66/37/17 49/36/16
f 49/36/16 66/37/17 51/38/18
f 66/37/17 68/39/19 51/38/18
f 51/38/18 68/39/19 54/40/62
f 68/39/19 67/41/21 54/40/62
f 54/40/62 67/41/21 45/42/63
f 67/41/21 65/43/63 45/42/63
f 48/44/23 69/45/24 77/46/25
f 69/45/24 70/47/26 77/46/25
f 77/46/25 70/47/26 52/48/27
f 70/47/26 72/49/27 52/48/27
f 52/50/28 72/51/28 50/52/29
f 72/51/28 71/53/30 50/52/29
f 50/52/29 71/53/30 48/44/23
f 71/53/30 69/45/24 48/44/23
f 46/54/31 73/55/32 53/56/33
f 73/55/32 74/57/34 53/56/33
f 53/56/33 74/57/34 55/58/35
f 74/57/34 76/59/35 55/58/35
f 55/60/27 76/61/27 78/62/36
f 76/61/27 75/63/37 78/62/36
f 78/62/36 75/63/37 46/54/31
f 75/63/37 73/55/32 46/54/31
f 62/20/59 80/64/65 79/65/64
f 81/66/66 82/67/67 58/16/55
f 79/65/64 80/64/65 81/66/66
f 80/64/65 82/67/67 81/66/66
f 83/68/68 84/69/69 80/64/65
f 84/69/69 82/67/67 80/64/65
f 77/73/70 52/12/49 81/71/71
f 81/71/71 52/12/49 79/70/72
f 52/12/49 55/9/49 79/70/72
f 55/9/49 78/72/73 79/70/72
f 49/5/49 47/4/51 45/3/49
f 47/4/51 44/1/48 45/3/49
f 48/6/52 77/73/70 57/14/54
f 77/73/70 56/17/53 57/14/54
f 48/6/52 57/14/54 47/4/51
f 57/14/54 59/13/56 47/4/51
f 81/71/71 56/17/53 77/73/70
f 58/16/55 56/17/53 81/66/66
f 44/1/48 63/19/60 46/2/50
f 78/72/73 46/2/50 61/18/58
f 46/2/50 63/19/60 61/18/58
f 78/72/73 61/18/58 79/70/72
f 79/65/64 61/18/58 62/20/59
f 42/74/15 84/69/69 43/75/15
f 84/69/69 83/68/68 43/75/15
